<?xml version="1.0" encoding="UTF-8" standalone="no"?>
<!-- Created with Inkscape (http://www.inkscape.org/) -->

<svg
   width="87.371872mm"
   height="100.00001mm"
   viewBox="0 0 87.371872 100.00001"
   version="1.1"
   id="svg1"
   xml:space="preserve"
   inkscape:version="1.3.2 (091e20ef0f, 2023-11-25)"
   sodipodi:docname="logo.svg"
   xmlns:inkscape="http://www.inkscape.org/namespaces/inkscape"
   xmlns:sodipodi="http://sodipodi.sourceforge.net/DTD/sodipodi-0.dtd"
   xmlns:xlink="http://www.w3.org/1999/xlink"
   xmlns="http://www.w3.org/2000/svg"
   xmlns:svg="http://www.w3.org/2000/svg"><sodipodi:namedview
     id="namedview1"
     pagecolor="#ffffff"
     bordercolor="#000000"
     borderopacity="0.25"
     inkscape:showpageshadow="2"
     inkscape:pageopacity="0.0"
     inkscape:pagecheckerboard="0"
     inkscape:deskcolor="#d1d1d1"
     inkscape:document-units="mm"
     inkscape:zoom="0.84096521"
     inkscape:cx="102.858"
     inkscape:cy="322.24877"
     inkscape:window-width="1920"
     inkscape:window-height="1280"
     inkscape:window-x="0"
     inkscape:window-y="0"
     inkscape:window-maximized="0"
     inkscape:current-layer="layer1" /><defs
     id="defs1"><linearGradient
       id="linearGradient1"
       inkscape:collect="always"><stop
         style="stop-color:#ec972d;stop-opacity:1;"
         offset="0"
         id="stop1" /><stop
         style="stop-color:#facc77;stop-opacity:1;"
         offset="1"
         id="stop2" /></linearGradient><linearGradient
       inkscape:collect="always"
       xlink:href="#linearGradient1"
       id="linearGradient2"
       x1="148.26614"
       y1="221.46857"
       x2="145.76819"
       y2="133.52405"
       gradientUnits="userSpaceOnUse"
       gradientTransform="matrix(1.1229548,0,0,1.1229548,-108.02146,-49.564337)" /></defs><g
     inkscape:label="Layer 1"
     inkscape:groupmode="layer"
     id="layer1"
     transform="translate(-10.99348,-99.707)"><path
       style="fill:url(#linearGradient2);stroke-width:1.12295"
       d="m 53.902627,199.66581 c -1.515978,-0.1793 -3.219994,-0.85839 -4.896454,-1.95134 -1.166166,-0.76027 -2.799986,-1.80777 -3.517846,-2.25544 -0.156878,-0.0978 -0.766878,-0.46561 -1.355554,-0.81729 -1.532484,-0.91552 -4.986244,-3.12875 -7.561562,-4.8456 -0.769257,-0.51283 -1.409983,-1.20985 -1.770697,-1.92627 -0.421838,-0.83783 -0.508632,-1.30112 -0.466352,-2.48906 0.03358,-0.94208 0.07131,-1.14228 0.302366,-1.60511 0.417896,-0.83687 1.187492,-1.56409 2.580113,-2.43803 2.041948,-1.28142 8.795992,-5.75136 10.886306,-7.20472 1.60495,-1.1159 4.611088,-3.16069 5.66342,-3.85231 0.437626,-0.2876 1.299776,-0.86939 1.915896,-1.29285 0.616108,-0.42347 1.462492,-0.97711 1.880826,-1.23032 0.418334,-0.2532 1.121876,-0.71963 1.563434,-1.03652 1.776424,-1.27486 2.383392,-1.69784 3.475634,-2.42197 1.245312,-0.82561 1.463446,-0.97901 2.80477,-1.97225 0.496774,-0.36787 1.266896,-0.91869 1.711384,-1.22407 0.444488,-0.30536 0.979296,-0.6772 1.188456,-0.82631 1.012018,-0.72141 3.184722,-2.15301 3.565382,-2.34924 0.521444,-0.26881 1.42038,-0.35765 2.061824,-0.20378 0.682476,0.16373 1.346366,0.70588 1.692022,1.38178 l 0.286928,0.56103 v 12.9847 12.98472 l -0.269904,0.7965 c -0.266398,0.78614 -0.803036,1.76789 -1.289712,2.3594 -0.349218,0.42447 -1.252286,1.11709 -2.33139,1.7881 -0.504576,0.31375 -1.22602,0.76807 -1.603208,1.0096 -0.377178,0.24154 -1.413126,0.90054 -2.302092,1.46447 -1.79675,1.13979 -3.149584,2.03311 -6.037374,3.98663 -2.95847,2.00134 -4.340648,2.56885 -6.465234,2.65453 -0.601352,0.0243 -1.371476,0.0112 -1.711382,-0.029 z m 28.75877,-17.24842 c -0.533358,-0.30405 -0.835028,-0.59923 -1.067828,-1.04486 l -0.256404,-0.49081 -0.05626,-4.42107 c -0.03088,-2.43159 -0.03055,-8.72093 8e-4,-13.9763 l 0.05705,-9.55522 0.212812,-0.53426 c 0.117046,-0.29384 0.388004,-0.77891 0.602118,-1.07791 0.440714,-0.61546 1.852235,-1.82534 2.756989,-2.36316 0.332686,-0.19775 0.947156,-0.59936 1.365502,-0.89244 1.384704,-0.97009 1.983452,-1.38459 2.993506,-2.07226 1.004302,-0.68377 2.231276,-1.59692 3.269156,-2.43302 0.306926,-0.24725 0.777556,-0.57024 1.045842,-0.71775 0.446744,-0.24562 0.571808,-0.26838 1.486096,-0.27038 0.922238,-0.002 1.035612,0.0184 1.487768,0.26909 0.595156,0.32989 1.0681,0.80701 1.427468,1.44009 l 0.269846,0.47539 0.0156,5.37184 c 0.009,2.95451 0.0402,8.34537 0.07019,11.97968 0.05952,7.19368 0.04031,7.57605 -0.459368,9.14524 -0.51246,1.60938 -1.735112,3.45455 -2.933158,4.42658 -0.579916,0.47052 -1.066604,0.80134 -3.036144,2.06384 -0.485622,0.3113 -1.161056,0.74472 -1.500952,0.96317 -0.339896,0.21845 -0.960272,0.60992 -1.378618,0.86993 -0.418334,0.26001 -1.46458,0.9345 -2.324988,1.49887 -1.970954,1.2928 -2.375072,1.47684 -3.21594,1.46456 -0.351487,-0.006 -0.725521,-0.0586 -0.831191,-0.11884 z m -58.66043,-0.68195 c -0.366049,-0.18249 -1.142853,-0.64176 -1.726228,-1.0206 -0.583375,-0.37886 -1.664837,-1.07387 -2.403236,-1.5445 -3.16625,-2.01804 -5.60515,-3.67736 -6.100519,-4.1505 -1.019441,-0.97372 -1.710934,-2.07913 -2.250873,-3.59827 -0.572033,-1.60939 -0.543735,-0.42462 -0.513134,-21.48736 0.02437,-16.7683 0.0475,-19.47492 0.173204,-20.29891 0.309711,-2.02947 1.259899,-3.77009 2.591724,-4.74775 0.965651,-0.70885 1.740333,-0.55509 3.689928,0.73242 2.163754,1.42893 3.684628,2.4165 3.781899,2.45574 0.122334,0.0493 3.814127,2.53572 5.847225,3.93802 3.715431,2.56266 4.908683,3.36465 6.575765,4.41956 0.537142,0.33991 1.555618,1.00598 2.26327,1.48017 3.581509,2.39992 5.761141,3.8776 6.224327,4.21977 0.28267,0.20882 2.132514,1.45483 4.110744,2.76891 1.978242,1.31409 3.810724,2.5353 4.072182,2.7138 0.261468,0.17852 1.651968,1.1183 3.090002,2.0884 1.438032,0.97011 2.833326,1.92141 3.100656,2.114 1.074164,0.77389 2.374938,1.68975 2.602302,1.83226 0.535224,0.33547 1.391106,1.30943 1.690766,1.92402 0.275742,0.56552 0.307498,0.71731 0.307498,1.46967 0,0.72065 -0.03627,0.9121 -0.256976,1.35685 -0.346308,0.69785 -1.001866,1.32632 -2.310098,2.21467 -0.601364,0.40835 -1.285918,0.88108 -1.521232,1.05052 -0.235316,0.16943 -1.240754,0.88026 -2.2343,1.57963 -0.993556,0.69935 -2.06317,1.45382 -2.376924,1.67657 -0.313754,0.22276 -2.303236,1.56994 -4.421072,2.99372 -2.117838,1.42378 -4.19289,2.82594 -4.611224,3.1159 -0.418346,0.28996 -1.167076,0.79494 -1.663848,1.12217 -1.425456,0.93898 -2.63535,1.7689 -3.612916,2.47827 -0.496784,0.36048 -1.382076,0.98347 -1.967328,1.38441 -0.585261,0.40095 -1.440953,0.98728 -1.901545,1.30294 -0.46059,0.31568 -1.393632,0.9494 -2.073434,1.4083 -0.679804,0.45888 -1.792202,1.21318 -2.471994,1.67621 -0.679804,0.46303 -1.599672,1.01644 -2.04416,1.22982 -0.78581,0.37721 -0.838375,0.38856 -1.901533,0.41046 -1.078429,0.0222 -1.102483,0.018 -1.758918,-0.30929 z m 43.687804,-29.48781 c -0.992994,-0.15708 -1.981374,-0.62008 -3.517846,-1.64793 -0.444476,-0.29735 -1.342952,-0.89778 -1.996614,-1.33429 -3.570334,-2.38429 -7.265618,-4.87021 -7.891374,-5.30874 -0.392192,-0.27485 -1.098136,-0.77173 -1.568768,-1.10419 -0.962146,-0.67966 -6.272208,-4.24344 -7.368458,-4.94526 -1.082608,-0.69308 -5.555976,-3.69025 -6.417686,-4.29986 -1.357788,-0.96056 -6.145091,-4.19872 -7.701225,-5.20916 -0.261458,-0.16977 -0.988796,-0.64543 -1.616304,-1.05701 -0.627506,-0.4116 -1.186962,-0.76974 -1.243244,-0.79589 -0.05626,-0.0262 -0.591079,-0.37766 -1.188457,-0.78115 -2.590994,-1.75003 -3.306002,-2.542 -3.656386,-4.0499 -0.415931,-1.79003 0.113553,-3.19073 1.671372,-4.42136 0.650685,-0.51404 2.156096,-1.55766 3.248316,-2.25189 0.534751,-0.33989 1.742455,-1.13141 2.683793,-1.75892 0.941328,-0.6275 1.819748,-1.20636 1.952056,-1.28636 0.132306,-0.08 0.668394,-0.42591 1.19132,-0.7687 0.522914,-0.34279 1.31443,-0.8614 1.758918,-1.15245 0.444489,-0.29105 1.342965,-0.90012 1.996615,-1.35349 0.653648,-0.45337 1.552124,-1.06221 1.996612,-1.35299 0.444488,-0.29078 2.19084,-1.45362 3.880798,-2.58411 4.604866,-3.08039 4.950568,-3.30259 6.234846,-4.00724 0.699366,-0.38373 1.956862,-0.815976 2.794912,-0.960702 0.960924,-0.165951 3.252784,-0.13745 4.129532,0.05132 1.56322,0.336642 2.350412,0.728932 5.063336,2.523302 0.992478,0.65644 1.84817,1.21493 1.901532,1.24108 0.05334,0.0262 0.781576,0.50082 1.618256,1.05483 0.83667,0.55401 1.713754,1.12233 1.949068,1.26292 0.235316,0.1406 1.21936,0.7657 2.186776,1.38912 1.938714,1.24937 4.417614,2.83088 5.500152,3.50905 0.384332,0.24078 1.646478,1.06288 2.804772,1.82691 1.158294,0.76403 2.533834,1.66695 3.05675,2.00651 2.07568,1.34782 2.382777,1.54665 2.534127,1.64075 0.08647,0.0538 0.41811,0.26888 0.736996,0.47806 1.937894,1.27115 3.08633,2.01296 3.84941,2.48645 3.998696,2.48119 5.89484,3.78226 6.768442,4.64431 1.4864,1.46673 2.470208,3.32981 2.70256,5.11793 0.408272,3.14207 -0.451306,4.67877 -4.041392,7.2249 -1.278866,0.90699 -1.369634,0.97184 -2.567074,1.83438 -0.47063,0.339 -1.369106,0.95381 -1.996614,1.36625 -0.627506,0.41242 -1.333452,0.8839 -1.568768,1.04772 -0.235314,0.16383 -0.791514,0.54857 -1.235992,0.85498 -0.444486,0.3064 -1.546936,1.08431 -2.449882,1.72868 -0.902947,0.64438 -2.336229,1.6512 -3.185071,2.23737 -0.848842,0.58617 -1.861444,1.29212 -2.250234,1.56877 -0.388778,0.27665 -1.051938,0.74112 -1.473686,1.03216 -0.421748,0.29105 -1.536932,1.06336 -2.478194,1.71625 -2.721648,1.88784 -3.453928,2.28089 -4.690166,2.51741 -0.655266,0.12537 -1.56687,0.1557 -2.107832,0.0702 z"
       id="path1" /></g></svg>
